<svg width="120" height="20" viewBox="0 0 120 20" fill="none" xmlns="http://www.w3.org/2000/svg">
<path d="M63.0637 2.34814H58.7441L62.6693 7.74675L64.8473 4.75694L63.0637 2.34814Z" fill="#E21C1C"/>
<path d="M71.0597 19.2338H75.4156L69.6461 11.3296L67.45 14.3376L71.0597 19.2338Z" fill="#E21C1C"/>
<path d="M70.9263 0L58.6472 16.8858H62.9667L75.2822 0H70.9263Z" fill="#E21C1C"/>
<path d="M30.1941 5.64674H34.4954V16.91H38.1901V5.64674H42.4732V2.39062H30.1941V5.64674Z" fill="#030303"/>
<path d="M5.71486 2.40283H0V16.9101H5.71486C10.1557 16.9101 13.5046 13.7871 13.5046 9.64133C13.5046 5.51369 10.1557 2.40283 5.71486 2.40283ZM5.41759 13.9021H3.66431V5.4108H5.41759C7.93529 5.4108 9.84024 7.23253 9.84024 9.64133C9.84024 12.0683 7.93529 13.9021 5.41759 13.9021Z" fill="#030303"/>
<path d="M27.0637 14.1079V13.6963H20.4449V10.9668H25.9899V8.16458H20.4449V5.64079H27.0637V2.40283H25.0071H17.0779V5.64079V13.6963V16.9403H27.0637V14.12L27.0698 14.1079H27.0637Z" fill="#030303"/>
<path d="M82.6896 2.40283H77.0354V16.9101H80.639V13.0064H82.6896C86.2083 13.0064 88.6714 10.8215 88.6714 7.6925C88.6714 4.57559 86.2144 2.40283 82.6896 2.40283ZM82.2164 10.295H80.639V5.11424H82.2164C83.9211 5.11424 85.0678 6.14918 85.0678 7.6925C85.0678 9.22372 83.8969 10.295 82.2164 10.295Z" fill="#030303"/>
<path d="M99.1789 2.01562C94.726 2.01562 91.2437 5.38673 91.2437 9.69594C91.2437 13.9507 94.732 17.2915 99.1789 17.2915C103.644 17.2915 107.145 13.9567 107.145 9.69594C107.145 5.39278 103.644 2.01562 99.1789 2.01562ZM99.1789 13.993C96.7523 13.993 94.8473 12.0805 94.8473 9.64146C94.8473 7.20241 96.7523 5.28989 99.1789 5.28989C101.606 5.28989 103.511 7.20241 103.511 9.64146C103.511 12.0805 101.606 13.993 99.1789 13.993Z" fill="#030303"/>
<path d="M55.4561 14.1079V13.6963H48.8434V10.9668H54.3823V8.16458H48.8434V5.64079H55.4561V2.40283H53.3995H45.4763V5.64079V13.6963V16.9403H55.4561V14.12L55.4622 14.1079H55.4561Z" fill="#030303"/>
<path d="M113.691 13.6659V2.1606L113.654 2.16665V2.03955H109.99V16.9099H113.242V16.916H119.964V13.7143L120 13.6659H113.691Z" fill="#030303"/>
</svg>
