<svg xmlns="http://www.w3.org/2000/svg" width="51.765" height="49.451" viewBox="0 0 51.765 49.451">
  <path id="karnisze-firanex" d="M52.895,2.7H2.291a.581.581,0,0,0-.581.581V5.615a.581.581,0,0,0,.581.581H27.012V51.562a.581.581,0,0,0,.044.219c.01.023.028.042.041.065a.556.556,0,0,0,.078.116.79.79,0,0,0,.07.053.6.6,0,0,0,.106.071.617.617,0,0,0,.091.026.58.58,0,0,0,.1.029c.067.006.134.009.2.009a2.951,2.951,0,0,0,1.9-.893c.49-.409.823-.662,1.252-.614.348.035.526.218.838.568a2.277,2.277,0,0,0,1.558.929h.059a2.958,2.958,0,0,0,2.141-1.03c.454-.415.834-.791,1.318-.756.264.008.428.211.741.675a2.156,2.156,0,0,0,1.3,1.064.445.445,0,0,0,.053.013,1.154,1.154,0,0,0,.145.036h.05a2.57,2.57,0,0,0,1.916-1.287c.348-.454.7-.881,1.028-.88.3.006.545.319.916.835A2.7,2.7,0,0,0,44.595,52.1c.026.01.055.01.082.019.048,0,.086.029.136.03h.012c.016,0,.03-.008.046-.009a2.52,2.52,0,0,0,1.8-1.172c.359-.433.7-.843,1.13-.888.6-.071,1.42.581,2.278,1.82a.581.581,0,0,0,1.058-.33V6.2h1.753a.581.581,0,0,0,.581-.581V3.281a.581.581,0,0,0-.581-.581ZM31.005,49.487a1.949,1.949,0,0,0-.215-.012,2.947,2.947,0,0,0-1.9.891,3.739,3.739,0,0,1-.722.517V6.2H32.76V50.6c-.055-.057-.1-.093-.164-.164A2.341,2.341,0,0,0,31.005,49.487Zm5.837-.293a3.019,3.019,0,0,0-2.137,1.057,4.129,4.129,0,0,1-.785.61V6.2H38.5V50.361A2.09,2.09,0,0,0,36.843,49.195Zm5.213-.384h-.016A2.63,2.63,0,0,0,40.1,50.139c-.163.208-.3.375-.438.514V6.2h4.587V50.579c-.107-.128-.219-.272-.348-.452a2.449,2.449,0,0,0-1.84-1.317Zm7.925,1.129a2.834,2.834,0,0,0-2.3-1.024,2.948,2.948,0,0,0-1.9,1.3c-.142.172-.262.309-.376.426V6.2h4.575ZM52.314,5.034H2.871V3.861H52.314Z" transform="translate(-1.71 -2.7)" fill="#d07a77"/>
</svg>
