<svg id="Group_1" data-name="Group 1" xmlns="http://www.w3.org/2000/svg" width="49.451" height="49.451" viewBox="0 0 49.451 49.451">
  <path id="Path_1" data-name="Path 1" d="M48.421,0H1.03A1.03,1.03,0,0,0,0,1.03V5.151a1.03,1.03,0,0,0,1.03,1.03h1.03v42.24a1.03,1.03,0,0,0,1.03,1.03A3.237,3.237,0,0,0,5.67,48.07c.45-.513.629-.679,1.031-.679s.58.166,1.03.679a3.237,3.237,0,0,0,2.581,1.381,3.274,3.274,0,0,0,2.579-1.382c.448-.512.627-.678,1.026-.678s.575.166,1.023.678a3.264,3.264,0,0,0,2.574,1.382,1.031,1.031,0,0,0,.922-1.491L10.59,32.269A18.635,18.635,0,0,0,17.8,20.691l2.638-14.51h8.584l2.638,14.51a18.633,18.633,0,0,0,7.2,11.577L31.012,47.923a1.145,1.145,0,0,0-.095.64,1.03,1.03,0,0,0,1.02.888,3.237,3.237,0,0,0,2.58-1.381c.45-.513.629-.679,1.031-.679s.58.166,1.03.679a3.237,3.237,0,0,0,2.581,1.381,3.274,3.274,0,0,0,2.579-1.382c.448-.512.627-.678,1.026-.678s.575.166,1.023.678a3.263,3.263,0,0,0,2.573,1.382,1.03,1.03,0,0,0,1.03-1.03V6.181h1.03a1.03,1.03,0,0,0,1.03-1.03V1.03A1.03,1.03,0,0,0,48.421,0ZM14.9,45.492a2.92,2.92,0,0,0-.981-.162,3.274,3.274,0,0,0-2.578,1.382c-.448.512-.627.678-1.027.678s-.582-.166-1.031-.679A3.237,3.237,0,0,0,6.7,45.33a3.237,3.237,0,0,0-2.581,1.381V32.223a14.467,14.467,0,0,0,4.509.735Zm.871-25.169A16.554,16.554,0,0,1,8.946,30.9c-2.448-.048-4.614-.587-4.825-1.021V6.181h14.22ZM45.33,46.7a3.09,3.09,0,0,0-5.144.009c-.448.512-.627.678-1.027.678s-.582-.166-1.031-.679a3.237,3.237,0,0,0-2.58-1.381,2.962,2.962,0,0,0-1.017.17L40.82,32.958a14.472,14.472,0,0,0,4.511-.735V46.7Zm0-16.843c-.229.454-2.386.99-4.825,1.037a16.553,16.553,0,0,1-6.824-10.575L31.111,6.181H45.33Zm2.061-25.74H2.06V2.06h45.33V4.121Z" fill="#d07a77"/>
</svg>
