<svg xmlns="http://www.w3.org/2000/svg" width="14.974" height="14.974" viewBox="0 0 14.974 14.974">
  <path id="Path_12" data-name="Path 12" d="M7.777,7.727a2.435,2.435,0,0,0-.449,3.252A10.663,10.663,0,0,0,10,13.646a2.435,2.435,0,0,0,3.252-.449l.008,0a11.168,11.168,0,0,0,3.054.913v2.2h0A11.416,11.416,0,0,1,4.664,4.667v0h2.2a11.161,11.161,0,0,0,.913,3.053Zm8.532,10.247h.833a.832.832,0,0,0,.832-.832V13.4a.832.832,0,0,0-.71-.823l-.711-.105a9.5,9.5,0,0,1-2.6-.777l-.626-.29a.832.832,0,0,0-1.027.271l-.284.4a.778.778,0,0,1-1.074.21,9,9,0,0,1-2.251-2.25A.777.777,0,0,1,8.9,8.955l.4-.283a.832.832,0,0,0,.271-1.027l-.29-.627a9.5,9.5,0,0,1-.777-2.6L8.4,3.71A.832.832,0,0,0,7.577,3H3.832A.832.832,0,0,0,3,3.832v.833A13.078,13.078,0,0,0,16.309,17.974Z" transform="translate(-3 -3)" fill="#d07a77"/>
</svg>
