<svg xmlns="http://www.w3.org/2000/svg" width="46.707" height="52" viewBox="0 0 46.707 52">
  <g id="Page-1" transform="translate(0 0.004)">
    <g id="_022---Tape-Measure" data-name="022---Tape-Measure" transform="translate(0 -0.004)">
      <path id="Shape" d="M30.56,1.527A76.7,76.7,0,0,0,20.8,1C9.136,1,0,5.567,0,11.4V25.264c0,4.665,5.878,8.594,14.537,9.918q-3.63,2.621-7.675,5.4a1.728,1.728,0,0,0-.1,2.778L18.33,52.615a1.744,1.744,0,0,0,2.112.048c1.936-1.41,3.826-2.883,5.667-4.4q2.686-2.211,5.2-4.537c.009-.01.021-.012.029-.022l.006-.01q2.461-2.275,4.718-4.624c.018-.017.042-.024.059-.044s.014-.029.023-.042c1.1-1.152,2.18-2.31,3.2-3.476C42.228,32.2,45.821,28.08,46.506,23c.7-5.177-.266-12.849-5.281-17.434C38.092,2.7,34.077,1.977,30.56,1.527ZM20.8,2.733c10.334,0,19.065,3.969,19.065,8.666,0,5.616-11.179,8.666-19.065,8.666C10.464,20.065,1.733,16.1,1.733,11.4S10.464,2.733,20.8,2.733ZM1.733,25.264V15.623C4.914,19.291,12.161,21.8,20.8,21.8a35.6,35.6,0,0,0,13.338-2.362,178.466,178.466,0,0,1-16.8,13.708V28.731a.867.867,0,1,0-1.733,0v4.853a33.33,33.33,0,0,1-4.333-.861V27.864a.867.867,0,0,0-1.733,0V32.2a21.08,21.08,0,0,1-3.466-1.519V25.264a.867.867,0,1,0-1.733,0v4.273c-1.647-1.284-2.6-2.752-2.6-4.273Zm17.679,26L7.844,42.013c1.322-.908,2.736-1.891,4.2-2.925a3.726,3.726,0,0,0,2.571.547,2.03,2.03,0,0,1,2.441,1.758,3.759,3.759,0,0,0,4.258,3.076,2.046,2.046,0,0,1,2.442,1.766,4.717,4.717,0,0,0,.489,1.313c-1.576,1.271-3.19,2.515-4.837,3.713ZM44.8,22.769a13.291,13.291,0,0,1-1.225,3.943l-1.232-1.733a.867.867,0,0,0-1.413,1.005l1.725,2.426a32.743,32.743,0,0,1-2.787,3.834l-2.412-2.758a.867.867,0,1,0-1.305,1.14l2.58,2.957c-.231.268-.461.532-.685.789-.844.969-1.733,1.933-2.64,2.892l-3.64-3.12a.867.867,0,1,0-1.127,1.316L34.2,38.522c-1.14,1.166-2.327,2.318-3.547,3.458l-4.095-3.508a.867.867,0,1,0-1.127,1.317l3.943,3.375c-1.213,1.1-2.476,2.184-3.756,3.25a5.048,5.048,0,0,1-.181-.6,3.751,3.751,0,0,0-4.252-3.07,2.055,2.055,0,0,1-2.449-1.774,3.733,3.733,0,0,0-4.252-3.062,3.84,3.84,0,0,1-.78,0c9.862-7.02,21.642-16.084,26.085-22.209a6.613,6.613,0,0,0,1.8-4.208c.045-2.725-1.868-4.886-4.15-6.4a11.138,11.138,0,0,1,2.62,1.756c4.227,3.867,5.421,10.782,4.729,15.921Z" transform="translate(0 -0.996)" fill="#d07a77"/>
      <path id="Shape-2" data-name="Shape" d="M22.239,17.049c3.545,0,9.462-1.017,10.987-4.229,1.035-2.18-.762-4.42-2.786-5.787a19.8,19.8,0,0,0-6.22-2.584,2.349,2.349,0,0,0-1.954.374,2.39,2.39,0,0,0-.789.974C15.458,5.993,11,8.356,11,11.416c0,4.086,6.825,5.633,11.239,5.633ZM28.6,14.276l.31-6.158q.289.173.559.354c3.255,2.194,3.187,4.283-.869,5.8ZM23.008,6.722V6.706a.65.65,0,0,1,.269-.477.607.607,0,0,1,.515-.1A23.44,23.44,0,0,1,27.22,7.265l-.38,7.545a19.577,19.577,0,0,1-4.451.506Zm-1.8.82-.554,7.713c-4.776-.345-7.925-2.2-7.925-3.838,0-1.713,3.436-3.631,8.479-3.875Z" transform="translate(-1.467 -1.447)" fill="#d07a77"/>
      <path id="Shape-3" data-name="Shape" d="M26.867,11a.867.867,0,0,0-.867.867v.867a.867.867,0,1,0,1.733,0v-.867A.867.867,0,0,0,26.867,11Z" transform="translate(-3.468 -2.33)" fill="#d07a77"/>
      <path id="Shape-4" data-name="Shape" d="M16.408,49.19a.867.867,0,1,0-1.083,1.354l4.333,3.466a.867.867,0,0,0,1.083-1.354Z" transform="translate(-2.001 -7.399)" fill="#d07a77"/>
    </g>
  </g>
</svg>
