<svg xmlns="http://www.w3.org/2000/svg" width="52.12" height="49.451" viewBox="0 0 52.12 49.451">
  <path id="rolety-firanex" d="M53.242,2.85H2.295a.585.585,0,0,0-.585.585V7.351a.585.585,0,0,0,.585.585h.818V51.717A.585.585,0,0,0,3.7,52.3H48.882a.585.585,0,0,0,.585-.585V7.935h.241V23.753a1.471,1.471,0,0,0,2.941,0V7.935h.6a.585.585,0,0,0,.585-.585V3.435a.585.585,0,0,0-.588-.585ZM4.278,29.71H48.294V39.837H4.278Zm44.015-1.169H4.278V18.409H48.294ZM4.278,51.132V41.006H48.294V51.132ZM48.294,17.24H4.278v-9.3H48.294Zm3.182,6.515a.316.316,0,0,1-.306.307.306.306,0,0,1-.3-.307V7.935h.6ZM52.658,6.766H2.879V4.019H52.658Z" transform="translate(-1.71 -2.85)" fill="#d07a77"/>
</svg>
