<svg id="Group_20" data-name="Group 20" xmlns="http://www.w3.org/2000/svg" width="50.289" height="49.451" viewBox="0 0 50.289 49.451">
  <path id="Path_27" data-name="Path 27" d="M47.775,6.514h-1.2a4.309,4.309,0,0,0-.872-1.292A4.2,4.2,0,0,0,42.746,4H10.9A5.867,5.867,0,0,0,6.1,6.514H2.514a2.514,2.514,0,1,0,0,5.029H5.029v41.07a.838.838,0,0,0,.838.838H39.393a.838.838,0,0,0,.838-.838V50.937H46.1a.838.838,0,0,0,.838-.838V11.543h.838a2.514,2.514,0,0,0,0-5.029ZM5.258,8.26c-.049.173-.084.35-.117.528-.017.089-.041.176-.054.266a5.959,5.959,0,0,0-.059.814H2.514a.838.838,0,0,1,0-1.676H5.273C5.266,8.213,5.264,8.237,5.258,8.26Zm33.3,43.515H6.705V45.07h31.85Zm0-8.382H6.705V40.041h31.85Zm.769-37.608c-.051.073-.1.148-.144.225-.068.111-.131.225-.189.344-.039.084-.075.161-.11.244-.021.052-.049.1-.067.151l-.005.007a.838.838,0,0,0-.122.176.78.78,0,0,0-.062.092.825.825,0,0,0-.07.329V38.364H6.705V9.867a4.057,4.057,0,0,1,.567-2.1,4.191,4.191,0,0,1,3.623-2.1h28.5C39.367,5.711,39.348,5.75,39.324,5.785Zm1.563.714a2.475,2.475,0,0,1,.347-.316c.033-.025.07-.044.1-.067a2.461,2.461,0,0,1,.305-.179c.049-.024.1-.045.148-.065a2.425,2.425,0,0,1,.32-.106c.049-.013.1-.028.146-.037a2.488,2.488,0,0,1,.489-.053,2.521,2.521,0,0,1,1.774.729c.034.035.07.072.1.109H40.874ZM45.26,49.26H40.231V11.543H45.26ZM47.775,9.867H40.231V8.191h7.543a.838.838,0,0,1,0,1.676Z" transform="translate(0 -4)" fill="#d07a77"/>
</svg>
