<svg id="haft-firanex" xmlns="http://www.w3.org/2000/svg" width="49.451" height="49.451" viewBox="0 0 49.451 49.451">
  <path id="Path_2" data-name="Path 2" d="M16.75,1.6h32.7V0H16.75A7.187,7.187,0,0,0,9.571,7.178v3.19a2.4,2.4,0,0,0,2.393,2.393h6.381v1.6h-3.19a1.6,1.6,0,0,0-1.6,1.6v1.6a1.6,1.6,0,0,0,1.6,1.6h3.19v3.19a1.6,1.6,0,0,0-1.6,1.6v1.6a1.6,1.6,0,0,0,1.6,1.6v1.708C7.67,29.566,0,33.822,0,39.082,0,44.9,9.46,49.451,21.535,49.451S43.07,44.9,43.07,39.082c0-5.26-7.67-9.516-18.345-10.256V27.118a1.6,1.6,0,0,0,1.6-1.6h3.19v1.6h1.6V22.333h-1.6v1.6h-3.19a1.6,1.6,0,0,0-1.6-1.6v-3.19h3.19a1.6,1.6,0,0,0,1.6-1.6v-1.6a1.6,1.6,0,0,0-1.6-1.6h-3.19v-1.6h3.19a2.4,2.4,0,0,0,2.393-2.393v-.8H49.451v-1.6H23.928v-1.6a1.6,1.6,0,0,0-1.6-1.6h-1.6a1.6,1.6,0,0,0-1.6,1.6v1.6h-1.6v-1.6a1.6,1.6,0,0,0-1.6-1.6h-1.6a1.6,1.6,0,0,0-1.6,1.6v1.6h-1.6v-.8A5.59,5.59,0,0,1,16.75,1.6ZM41.475,39.082c0,4.756-9.132,8.774-19.94,8.774a41.212,41.212,0,0,1-8.058-.779c.088-.046.18-.082.266-.132l3.765-2.2a3.355,3.355,0,0,0,1.173.111.906.906,0,0,1,.786.325,2.762,2.762,0,0,0,2.067,1.077A2.762,2.762,0,0,0,23.6,45.184a.9.9,0,0,1,.786-.325,2.522,2.522,0,0,0,2.923-2.922.914.914,0,0,1,.325-.786c.014-.012.023-.025.037-.037a5.583,5.583,0,0,0,4.23,1.958h5.583v-.8A5.59,5.59,0,0,0,31.9,36.69H27.393a.929.929,0,0,1-.081-.46,2.768,2.768,0,0,0-.7-2.223,2.3,2.3,0,0,0-.8-.515l-.581,1.486a.707.707,0,0,1,.25.157,1.3,1.3,0,0,1,.238.97,2.506,2.506,0,0,0,.881,2.125.963.963,0,0,1,0,1.707,2.507,2.507,0,0,0-.881,2.126,1.3,1.3,0,0,1-.238.969,1.292,1.292,0,0,1-.968.238,2.5,2.5,0,0,0-2.126.881,1.3,1.3,0,0,1-.853.517,1.3,1.3,0,0,1-.853-.517,2.521,2.521,0,0,0-2.126-.881,1.287,1.287,0,0,1-.968-.238,1.3,1.3,0,0,1-.238-.97,2.506,2.506,0,0,0-.881-2.125.963.963,0,0,1,0-1.707,2.507,2.507,0,0,0,.881-2.126,1.3,1.3,0,0,1,.238-.969.715.715,0,0,1,.25-.157l-.581-1.486a2.3,2.3,0,0,0-.8.515,2.709,2.709,0,0,0-.7,2.047l-2.815-1.641A6.7,6.7,0,0,0,9.571,33.5a3.19,3.19,0,1,0,3.19,3.19h-1.6a1.6,1.6,0,1,1-1.6-1.6,5.108,5.108,0,0,1,2.571.7L15,37.457a2.55,2.55,0,0,0-.643,1.626,2.767,2.767,0,0,0,1.077,2.067.916.916,0,0,1,.325.786,3.022,3.022,0,0,0,.357,1.777l-3.177,1.854a5.115,5.115,0,0,1-2.571.695c-.06,0-.116-.01-.174-.015-.2-.062-.4-.124-.593-.19a1.592,1.592,0,1,1,2.362-1.39h1.6a3.19,3.19,0,0,0-6.381,0,3.328,3.328,0,0,0,.031.447C3.754,43.527,1.6,41.393,1.6,39.082c0-4.236,7.295-7.958,16.75-8.648V31.9a1.6,1.6,0,0,0,1.6,1.6h.8v1.676a3.988,3.988,0,1,0,1.6,0V33.5h.8a1.6,1.6,0,0,0,1.6-1.6v-1.47c9.455.69,16.75,4.412,16.75,8.648Zm-12.927-.8H31.9a3.994,3.994,0,0,1,3.907,3.19H31.9a3.992,3.992,0,0,1-3.295-1.754,2.232,2.232,0,0,0,.1-.639,2.268,2.268,0,0,0-.166-.8Zm-6.215-1.448a2.393,2.393,0,1,1-1.6,0V39.88h1.6Zm.8-4.932H19.94V27.118h3.19Zm1.6-6.381H18.345v-1.6h6.381Zm-1.6-3.19H19.94v-3.19h3.19Zm4.786-4.786H15.154v-1.6H27.916Zm-4.786-3.19H19.94v-1.6h3.19ZM20.738,6.381h1.6v1.6h-1.6Zm-6.381,0h1.6v1.6h-1.6Zm14.357,3.19v.8a.8.8,0,0,1-.8.8H11.964a.8.8,0,0,1-.8-.8v-.8Z" fill="#d07a77"/>
</svg>
