<svg xmlns="http://www.w3.org/2000/svg" width="54" height="54.137" viewBox="0 0 54 54.137">
  <g id="tekstylia-domowe-firanex" transform="translate(-9 -8.865)">
    <g id="Group_2" data-name="Group 2" transform="translate(14.72 10.002)">
      <path id="Path_8" data-name="Path 8" d="M191.354,41.611a4.209,4.209,0,0,1,.8-1.7,37.793,37.793,0,0,0,5.328-9.229A4.2,4.2,0,0,1,199.7,28.4a2.71,2.71,0,0,0-1.33-5.181,4.333,4.333,0,0,1-2.812-.687q-3.62-2.423-7.533-4.687t-7.825-4.181a4.333,4.333,0,0,1-2-2.092,2.71,2.71,0,0,0-5.152,1.438,4.2,4.2,0,0,1-.872,3.058,37.581,37.581,0,0,0-2.295,3.268" transform="translate(-157.697 -10.002)" fill="none" stroke="#d07a77" stroke-linecap="round" stroke-linejoin="round" stroke-width="2"/>
      <path id="Path_9" data-name="Path 9" d="M86.451,112.657a2.662,2.662,0,0,0,.037-.327,2.7,2.7,0,0,0-.522-1.745,4.2,4.2,0,0,1-.773-3.084,37.787,37.787,0,0,0,0-10.656,4.2,4.2,0,0,1,.773-3.084,2.71,2.71,0,0,0-3.743-3.822,4.333,4.333,0,0,1-2.779.811q-4.346-.289-8.868-.292t-8.867.292a4.333,4.333,0,0,1-2.779-.811,2.71,2.71,0,0,0-3.743,3.822,4.2,4.2,0,0,1,.773,3.084,37.788,37.788,0,0,0,0,10.656,4.2,4.2,0,0,1-.773,3.084,2.7,2.7,0,0,0-.522,1.745,2.671,2.671,0,0,0,.056.427" transform="translate(-54.662 -81.05)" fill="none" stroke="#d07a77" stroke-linecap="round" stroke-linejoin="round" stroke-width="2"/>
    </g>
    <path id="Path_10" data-name="Path 10" d="M36,310H16.764A6.764,6.764,0,0,0,10,316.764h0a6.764,6.764,0,0,0,6.764,6.764h35.09a3.382,3.382,0,0,0,3.382-3.382h0a3.382,3.382,0,0,0-3.382-3.382H19.507" transform="translate(0 -268.291)" fill="none" stroke="#d07a77" stroke-linecap="round" stroke-linejoin="round" stroke-width="2"/>
    <path id="Path_11" data-name="Path 11" d="M25.311,323.529H13.382A3.382,3.382,0,0,0,10,326.911h0a3.382,3.382,0,0,0,3.382,3.382H51.854A10.146,10.146,0,0,0,62,320.146h0A10.146,10.146,0,0,0,51.854,310H36" transform="translate(0 -268.291)" fill="none" stroke="#d07a77" stroke-linecap="round" stroke-linejoin="round" stroke-width="2"/>
  </g>
</svg>
