<svg xmlns="http://www.w3.org/2000/svg" width="47.523" height="52" viewBox="0 0 47.523 52">
  <g id="doradztwo-firanex" transform="translate(-119.831 -84.076)">
    <path id="Path_3" data-name="Path 3" d="M414.922,232.31H404.91a1,1,0,0,1,0-2h10.012a1,1,0,0,1,0,2Z" transform="translate(-266.322 -137.094)" fill="#d07a77"/>
    <path id="Path_4" data-name="Path 4" d="M414.922,337.51H404.91a1,1,0,0,1,0-2h10.012a1,1,0,1,1,0,2Z" transform="translate(-266.322 -235.718)" fill="#d07a77"/>
    <path id="Path_5" data-name="Path 5" d="M296.676,115.579a2.423,2.423,0,0,1-2.332-3.027,11.334,11.334,0,0,0,.331-2.171,13.432,13.432,0,1,1,6.5.293A10.267,10.267,0,0,1,298.232,115,2.393,2.393,0,0,1,296.676,115.579Zm1.838-29.508a11.435,11.435,0,0,0-2.592,22.572,1,1,0,0,1,.774.972,13.651,13.651,0,0,1-.416,3.438.394.394,0,0,0,.179.459.382.382,0,0,0,.476-.038,8.5,8.5,0,0,0,2.535-3.982,1,1,0,0,1,.8-.688,11.435,11.435,0,0,0-1.758-22.733Z" transform="translate(-154.92 0)" fill="#d07a77"/>
    <path id="Path_6" data-name="Path 6" d="M248.194,639.409c-.094,0-.188,0-.27-.011A33.56,33.56,0,0,1,237.23,636.2a6.075,6.075,0,0,0-5.037-.258,1,1,0,0,1-1.25-.459l-4.488-8.409a1,1,0,0,1,.638-1.438c1-.25,9.829-2.46,11.755-2.46,1.729,0,9.261,1.958,12.811,3.625a3.563,3.563,0,0,1,1.957,2.394l9.405-4.25a2.983,2.983,0,0,1,2.733.125c1.3.76,1.753,2.35,1.25,4.363a3.011,3.011,0,0,1-1.125,1.68,74.382,74.382,0,0,1-8.538,4.938C252.929,638.281,249.855,639.409,248.194,639.409Zm-13.769-5.89a8.079,8.079,0,0,1,3.723.909,31.725,31.725,0,0,0,9.944,2.977c.428.037,2.3-.081,8.346-3.139a74.387,74.387,0,0,0,8.251-4.76,1.008,1.008,0,0,0,.375-.562c.129-.516.355-1.756-.321-2.153a.983.983,0,0,0-.9-.026l-10.433,4.718a3.536,3.536,0,0,1-.5.8c-.038.045-.076.091-.117.136a3.548,3.548,0,0,1-3.85.973l-5.259-1.875a3.884,3.884,0,0,0-3.384.369,1,1,0,1,1-1.063-1.7,5.876,5.876,0,0,1,5.117-.558l5.259,1.875a1.555,1.555,0,0,0,1.688-.422c.024-.026.046-.052.068-.078a1.509,1.509,0,0,0,.309-1.3,1.578,1.578,0,0,0-.875-1.092,53.724,53.724,0,0,0-11.959-3.438,90.1,90.1,0,0,0-10.025,2.091L232.3,633.8A8.073,8.073,0,0,1,234.426,633.519Z" transform="translate(-99.85 -505.407)" fill="#d07a77"/>
    <path id="Path_7" data-name="Path 7" d="M128.343,649.575a2.73,2.73,0,0,1-2.408-1.438l-5.781-10.775a2.73,2.73,0,0,1,1.115-3.692l2.859-1.534a2.727,2.727,0,0,1,3.692,1.115l5.777,10.774a2.73,2.73,0,0,1-1.114,3.692l-2.859,1.533A2.708,2.708,0,0,1,128.343,649.575Zm-2.927-15.762a.724.724,0,0,0-.342.086l-2.857,1.533a.728.728,0,0,0-.3.984l5.777,10.774a.726.726,0,0,0,.984.3l2.859-1.533a.726.726,0,0,0,.3-.984l-5.78-10.772a.728.728,0,0,0-.642-.384Z" transform="translate(0 -513.499)" fill="#d07a77"/>
  </g>
</svg>
