<?xml version="1.0" encoding="utf-8"?>
<!-- Generator: Adobe Illustrator 15.1.0, SVG Export Plug-In . SVG Version: 6.00 Build 0)  -->
<!DOCTYPE svg PUBLIC "-//W3C//DTD SVG 1.0//EN" "http://www.w3.org/TR/2001/REC-SVG-20010904/DTD/svg10.dtd">
<svg version="1.0" id="Layer_1" xmlns="http://www.w3.org/2000/svg" xmlns:xlink="http://www.w3.org/1999/xlink" x="0px" y="0px"
	 width="258.236px" height="102.322px" viewBox="0 0 258.236 102.322" enable-background="new 0 0 258.236 102.322"
	 xml:space="preserve">
<g>
	<path fill-rule="evenodd" clip-rule="evenodd" fill="#E21F26" d="M6.32,52.202c6.074,15.945,22.813,26.795,47.3,32.142
		c3.187,0.694,7.545,1.448,9.553,1.866c24.144,4.909,54.72,6.9,88.132,7.245l99.81,0.208c1.808-0.813,3.23-2.51,3.337-5.077
		l-2.03-2.838c-85.522,0.026-148.08-7.102-184.496-20.938c-7.713-3.221-13.678-5.646-24.437-13.051
		c-16.454-13.093-17.476-29.613-3.396-50.26C16.249,10.768-3.384,22.58,6.32,52.202"/>
	<path fill-rule="evenodd" clip-rule="evenodd" fill="#FFFFFF" d="M251.8,85.791c-10.214-2.661,1.354-1.916-36.691-7.445
		c-41.057-8.742-248.96-114.943-167.93,20.897c-6.593-107.9,106.092-16.012,174.488-13.87
		C231.891,85.682,241.737,85.883,251.8,85.791"/>
	<path fill="#E21F26" d="M47.178,100.821c-0.544,0-1.064-0.283-1.354-0.77C28.477,70.971,23.196,51.285,29.68,39.869
		c4.087-7.195,12.893-10.845,26.174-10.845c30.626,0,80.936,19.182,117.671,33.188c18.018,6.87,33.584,12.805,41.863,14.578
		c27.44,3.989,29.241,4.743,31.969,5.884c0.968,0.406,2.062,0.864,4.841,1.589c0.766,0.2,1.267,0.935,1.17,1.721
		c-0.098,0.784-0.763,1.377-1.553,1.385c-1.674,0.015-3.339,0.023-5.002,0.023c-7.331,0-15.101-0.138-25.191-0.443
		c-22.184-0.693-48.794-10.651-74.527-20.28c-25.057-9.375-48.724-18.23-66.823-18.23c-9.848,0-17.128,2.649-22.257,8.103
		c-7.495,7.968-10.525,21.903-9.26,42.606c0.044,0.726-0.416,1.39-1.11,1.603C47.489,100.798,47.333,100.821,47.178,100.821
		 M55.854,32.181c-12.063,0-19.945,3.11-23.43,9.246c-5.401,9.509-1.054,26.826,12.921,51.522
		c-0.339-18.161,3.073-30.814,10.37-38.572c5.759-6.119,13.79-9.094,24.556-9.094c18.672,0,42.598,8.952,67.929,18.43
		c25.494,9.54,51.858,19.404,73.519,20.083c7.691,0.232,14.028,0.365,19.848,0.416c-3.724-0.807-10.905-2.012-26.684-4.307
		c-0.035-0.003-0.069-0.009-0.103-0.017c-8.504-1.811-24.202-7.797-42.38-14.728C135.894,51.242,85.897,32.181,55.854,32.181"/>
	<path fill-rule="evenodd" clip-rule="evenodd" fill="#E21F26" d="M161.753,77.266c0.242,0.017,0.47,0.025,0.703,0.042
		c14.941,1.297,29.715-1.981,44.487-6.257c15.494-4.476,31.237-3.823,47.099,1.421l-2.349-41.426
		c-16.013-4.651-31.774-4.617-47.101,0.594c-12.497,4.242-24.997,7.78-37.703,8.24c0-0.033,0.009-0.058,0.009-0.085
		c-1.354,0.062-2.71,0.085-4.065,0.085L161.753,77.266z"/>
	<path fill-rule="evenodd" clip-rule="evenodd" fill="#E21F26" d="M69.966,65.045c16.13-3.958,31.873-3.34,47.065,2.384
		c14.497,5.453,29.045,9.912,44.036,9.82c0.227,0,0.46,0.009,0.695,0.018l1.069-37.394c-1.346-0.094-2.693-0.235-4.049-0.402
		c0,0.017,0.009,0.049,0.009,0.084c-12.649-1.481-24.921-6.015-37.136-11.27c-14.999-6.424-30.718-7.737-46.964-4.391L69.966,65.045
		z"/>
	<path fill-rule="evenodd" clip-rule="evenodd" fill="#FFFFFF" d="M127.011,31.983c-2.385-0.98-4.76-2.001-7.137-2.988
		c-1.396-0.551-2.791-1.068-4.198-1.563c-1.404-0.468-2.812-0.895-4.226-1.305c-1.414-0.376-2.835-0.72-4.267-1.037
		c-1.429-0.292-2.858-0.553-4.3-0.778c-1.445-0.209-2.877-0.376-4.324-0.527c-1.465-0.116-2.911-0.201-4.375-0.268
		c-1.465-0.032-2.929-0.032-4.4-0.016c-1.472,0.049-2.953,0.125-4.434,0.233l-2.97,0.293c-2.234,0.284-4.452,0.618-6.659,1.055
		l-4.394,38.247c1.499-0.326,2.995-0.627,4.493-0.903c1.522-0.251,3.037-0.477,4.552-0.679c1.515-0.165,3.012-0.302,4.534-0.418
		c1.506-0.084,3.002-0.15,4.501-0.167c1.496,0,2.985,0.017,4.483,0.083c1.489,0.084,2.979,0.2,4.459,0.344
		c1.488,0.167,2.96,0.368,4.441,0.595c1.474,0.267,2.944,0.553,4.41,0.869c1.473,0.359,2.918,0.728,4.374,1.139
		c1.464,0.451,2.91,0.911,4.366,1.405c1.382,0.511,2.77,1.021,4.149,1.539c4.052,1.471,8.1,2.844,12.206,4.09
		c2.258,0.67,4.518,1.28,6.802,1.857c1.807,0.428,3.631,0.819,5.445,1.188c1.832,0.335,3.647,0.635,5.48,0.886
		c1.37,0.176,2.742,0.326,4.123,0.452c2.168,0.159,5.572,0.318,7.748,0.318l0.995-34.734c-0.552-0.05-2.359-0.15-2.92-0.218v0.101
		c-1.631-0.208-3.263-0.418-4.887-0.668c-1.99-0.336-3.965-0.72-5.938-1.163c-2.367-0.563-4.71-1.181-7.054-1.866
		c-2.35-0.711-4.666-1.481-6.992-2.301C132.389,34.101,129.696,33.063,127.011,31.983"/>
	<path fill-rule="evenodd" clip-rule="evenodd" fill="#E21F26" d="M84.137,25.482l-2.349,26.754l11.116,1.373l0.418-4.811
		l-6.927-0.854l1.933-21.942L84.137,25.482z M96.018,44.013L96.018,44.013c-0.067,0.285-0.128,0.527-0.27,0.854
		c-1.128,4.951,1.541,10.958,6.494,12.64c3.778,1.129,7.167-0.485,9.176-3.632l-4.335-1.472c-1.178,0.777-2.584,0.911-3.931,0.527
		c-1.982-0.744-3.605-2.77-3.514-5.27l12.69,4.299c0.26-0.712,0.494-1.39,0.668-2.116c1.507-6.223-1.854-11.637-6.014-13.042
		C101.111,34.819,96.961,40.098,96.018,44.013 M105.955,41.327L105.955,41.327c2.535,0.861,3.529,3.471,3.614,5.271l-9.003-3.053
		C101.429,42.071,103.345,40.517,105.955,41.327 M126.467,42.816L126.467,42.816c-4.367-1.278-9.628,1.439-11.127,8.566
		c-0.719,4.059,1.182,10.691,7.229,12.464c3.288,0.753,7.411-0.97,9.218-4.784l-4.481-1.322c-1.266,1.322-2.729,1.79-4.185,1.365
		c-2.367-0.778-4.166-3.364-3.756-6.836c0.667-3.179,2.858-5.789,5.746-4.944c1.372,0.402,2.955,1.139,3.581,3.757l4.5,1.321
		C133.109,49.159,131.12,44.188,126.467,42.816 M150.711,56.921L150.711,56.921c0.578-4.927-2.191-8.8-5.681-9.386
		c-1.488-0.251-3.054,0.126-4.5,1.313l0.953-8.055l-4.04-0.67l-3.138,26.628l4.041,0.677l1.214-10.34
		c0.45-3.739,2.367-5.329,4.097-5.042c1.701,0.283,3.222,2.44,2.778,6.18l-1.221,10.323l4.04,0.679L150.711,56.921z"/>
	<path fill-rule="evenodd" clip-rule="evenodd" fill="#FFFFFF" d="M176.995,70.105l4.184-0.527l-0.913-10.157l2.753-0.342
		c4.819-0.602,6.902-4.299,6.784-9.002c-0.351-3.897-2.475-8.313-9.034-7.487l-6.167,0.771L176.995,70.105z M179.84,54.62
		L179.84,54.62l-0.619-6.977l2.191-0.276c1.874-0.167,3.933,0.134,4.185,2.952c0.165,2.494-1.707,3.647-3.615,4.034L179.84,54.62z
		 M192.546,50.479L192.546,50.479c-1.321,2.645-1.605,5.13-1.354,7.472c0.911,5.864,5.404,9.922,10.432,8.968
		c4.912-0.929,8.291-6.534,7.515-12.348c-0.762-5.638-5.564-9.729-10.292-8.843C196.654,46.146,194.37,47.635,192.546,50.479
		 M195.993,52.93L195.993,52.93c0.77-1.362,1.934-2.207,3.239-2.451c2.852-0.543,5.261,1.731,5.703,5.029
		c0.452,3.337-1.162,6.115-4.056,6.801c-2.744,0.367-5.096-1.865-5.631-4.971C195.082,55.708,195.442,54.145,195.993,52.93
		 M212.968,36.016L212.968,36.016l3.571,26.553l4.033-0.762L217,35.263L212.968,36.016z"/>
</g>
</svg>
