<?xml version="1.0" encoding="UTF-8" standalone="no"?>
<!-- Created with Inkscape (http://www.inkscape.org/) -->

<svg
   xmlns:dc="http://purl.org/dc/elements/1.1/"
   xmlns:cc="http://creativecommons.org/ns#"
   xmlns:rdf="http://www.w3.org/1999/02/22-rdf-syntax-ns#"
   xmlns:svg="http://www.w3.org/2000/svg"
   xmlns="http://www.w3.org/2000/svg"
   xmlns:sodipodi="http://sodipodi.sourceforge.net/DTD/sodipodi-0.dtd"
   xmlns:inkscape="http://www.inkscape.org/namespaces/inkscape"
   version="1.1"
   id="svg2"
   xml:space="preserve"
   width="566.92957"
   height="134.03867"
   viewBox="0 0 566.92956 134.03867"
   sodipodi:docname="logo_vadain.svg"
   inkscape:version="0.92.3 (2405546, 2018-03-11)"><metadata
     id="metadata8"><rdf:RDF><cc:Work
         rdf:about=""><dc:format>image/svg+xml</dc:format><dc:type
           rdf:resource="http://purl.org/dc/dcmitype/StillImage" /><dc:title></dc:title></cc:Work></rdf:RDF></metadata><defs
     id="defs6" /><sodipodi:namedview
     pagecolor="#ffffff"
     bordercolor="#666666"
     borderopacity="1"
     objecttolerance="10"
     gridtolerance="10"
     guidetolerance="10"
     inkscape:pageopacity="0"
     inkscape:pageshadow="2"
     inkscape:window-width="1920"
     inkscape:window-height="1027"
     id="namedview4"
     showgrid="false"
     inkscape:pagecheckerboard="true"
     fit-margin-top="0"
     fit-margin-left="0"
     fit-margin-right="0"
     fit-margin-bottom="0"
     inkscape:zoom="1.5989663"
     inkscape:cx="299.72"
     inkscape:cy="37.256454"
     inkscape:window-x="-8"
     inkscape:window-y="-8"
     inkscape:window-maximized="1"
     inkscape:current-layer="g10" /><g
     id="g10"
     inkscape:groupmode="layer"
     inkscape:label="logo_Vadain"
     transform="matrix(1.3333333,0,0,-1.3333333,-30.067999,164.10666)"><path
       d="m 211.2985,33.2252 c -16.4169,0 -20.6643,16.1455 -20.6643,28.6347 0,13.2027 3.3746,27.2407 20.808,27.2407 17.5827,0 20.8083,-16.9881 20.8083,-30.1859 0,-18.815 -10.5506,-25.6895 -20.952,-25.6895 z m 227.9831,4.0011 c -0.007,0.1406 -0.0286,0.2622 -0.0286,0.4093 v 19.4967 l -0.0167,-0.0131 v 16.5575 c 0,16.1413 -8.932,25.8307 -26.5147,25.8307 -11.1419,0 -18.1687,-5.3331 -23.4383,-12.4971 0,0 -0.148,0 -0.2971,-0.1383 l -0.1238,-0.0111 c -0.6157,5.2041 -2.8701,10.0726 -13.5119,10.0726 -2.9325,0 -4.8334,-0.8433 -7.0308,-1.4048 v -0.0023 c 8.6275,-0.0201 8.5714,-10.2503 8.4668,-12.3664 0.007,-0.1403 0.0283,-0.2625 0.0283,-0.409 V 63.2537 l 0.0117,0.0218 V 23.9757 h 12.8928 v 40.0147 c 0,13.4759 6.7399,24.427 20.5098,24.427 12.8939,0 16.1152,-7.4449 16.1152,-19.0942 V 39.0353 h 0.002 v -4.3506 c 0.4414,-5.616 2.9421,-11.232 14.3697,-11.232 2.9338,0 4.8347,0.8428 7.0322,1.4052 v 0.0017 c -8.6276,0.0207 -8.5723,10.2509 -8.4666,12.3667 z m -83.88,0 c -0.006,0.1406 -0.0286,0.2622 -0.0286,0.4093 v 58.3393 h -12.8897 l -0.017,-61.2902 c 0.4425,-5.616 2.9432,-11.232 14.3708,-11.232 2.9324,0 4.8336,0.8428 7.0322,1.4052 v 0.0017 c -8.6287,0.0207 -8.5737,10.2509 -8.4677,12.3667 z m -31.873,-0.1993 c -0.007,0.1406 -0.0286,0.2625 -0.0286,0.409 v 19.4973 l -0.005,-0.0034 v 5.0077 c 0,0 -10.0457,-24.9407 -32.5953,-28.8448 -1.3298,-0.1817 -2.6756,-0.2889 -4.0286,-0.2889 -9.3753,0 -13.9198,4.4898 -13.9198,12.4943 0,9.6866 10.1083,11.3706 16.4111,12.2114 6.6745,0.8203 11.1189,1.4941 14.2036,2.1138 5.9445,1.3442 19.9196,5.9207 19.9196,19.3629 l 0.0148,-0.4071 v 1.1137 c 0,18.8136 -22.123,20.4968 -29.007,20.4968 -16.5605,0 -30.6243,-5.8958 -31.0657,-24.4307 6.4111,-1.6551 11.2034,1.186 13.3753,5.565 0.1998,0.4683 0.4158,0.9164 0.6505,1.3445 0.288,0.5992 0.6316,1.1486 1.0199,1.6509 0.1151,0.1508 0.2433,0.2911 0.3598,0.434 0.3268,0.3716 0.6652,0.7228 1.021,1.0369 2.9174,2.7697 7.1969,4.1502 13.1709,4.1502 8.2032,0 17.8798,-1.9659 17.8798,-12.0739 0,-7.0186 -3.6666,-8.2837 -6.7442,-8.5621 l -21.2451,-2.5299 c -21.5371,-2.5248 -23.2943,-16.8452 -23.2943,-23.0238 0,-12.6352 9.9655,-21.1998 24.0242,-21.1998 14.9474,0 22.7146,6.7422 27.692,11.9344 0.441,-5.616 2.1985,-11.232 13.6261,-11.232 2.9333,0 4.8348,0.8431 7.0319,1.4052 v 0.002 c -8.6272,0.0207 -8.5722,10.2509 -8.4665,12.3664 z m -158.3785,0.2191 c 0,0.0661 -0.013,0.1219 -0.013,0.1899 v 12.2035 h 0.001 v 12.2981 c 0,0 -5.955,-14.7923 -18.9876,-23.3793 -0.0425,-0.0281 -0.0856,-0.0579 -0.127,-0.0848 -3.8625,-2.5242 -8.3488,-4.4912 -13.4767,-5.3796 -1.3329,-0.1828 -2.6819,-0.29 -4.0368,-0.29 -9.377,0 -13.9181,4.4898 -13.9181,12.4943 0,9.6866 10.1089,11.3706 16.4072,12.2114 6.6671,0.8203 11.1081,1.4918 14.1919,2.1118 5.9372,1.3411 19.929,5.9156 19.929,19.3649 l 0.0167,-0.4751 v 1.1817 c 0,18.8136 -21.0521,21.2349 -36.4122,21.2349 l 0.008,-0.0504 C 110.3661,100.8204 79.4268,94.733 59.5352,43.8953 L 38.0256,98.3988 H 22.551 L 52.9892,23.9766 h 14.4635 c 16.3255,75.115 69.3357,66.0688 69.3357,66.0688 v 0.0147 c 7.5279,-1.1021 15.7544,-4.3917 15.7544,-12.1935 0,-7.0186 -3.6624,-8.2837 -6.7454,-8.5621 L 124.5546,66.7746 C 103.017,64.2498 101.2603,49.9294 101.2603,43.7508 c 0,-12.6352 9.9624,-21.1998 24.0262,-21.1998 14.9431,0 22.7104,6.7422 27.6931,11.9344 0.4362,-5.616 2.1932,-11.232 13.6219,-11.232 2.9336,0 4.8336,0.8431 7.0319,1.4052 -8.9805,0 -8.5816,11.048 -8.4833,12.5875 z M 356.686,115.323 c 0,-4.2834 -3.4721,-7.7567 -7.757,-7.7567 -4.2834,0 -7.7564,3.4733 -7.7564,7.7567 0,4.2837 3.473,7.757 7.7564,7.757 4.2849,0 7.757,-3.4733 7.757,-7.757 z m -124.2927,7.7556 V 88.5387 l -0.4399,-0.5641 c -5.5639,7.723 -12.0107,12.2151 -22.8532,12.2151 -22.1287,0 -31.7959,-18.534 -31.7959,-36.7787 0,-19.6602 9.0864,-40.86 33.6968,-40.86 10.1083,0 16.8528,3.6488 21.8344,12.2156 0,0 0.1282,-0.1012 0.2602,-0.0082 0.4476,-5.5975 2.2312,-11.505 13.6228,-11.505 2.9316,0 4.8328,0.8431 7.031,1.4052 v 0.002 c -6.9528,0.0167 -8.2655,6.6551 -8.4568,10.3439 V 123.08 l -12.8994,-0.001 z"
       style="fill:#8a8a8a;fill-opacity:1;fill-rule:nonzero;stroke:none"
       id="path12"
       inkscape:connector-curvature="0" /></g></svg>